<?xml version="1.0" encoding="utf-8"?>
<!-- Generator: Adobe Illustrator 26.3.1, SVG Export Plug-In . SVG Version: 6.00 Build 0)  -->
<svg version="1.1" id="Layer_1" xmlns="http://www.w3.org/2000/svg" xmlns:xlink="http://www.w3.org/1999/xlink" x="0px" y="0px"
	 viewBox="0 0 100 100" style="enable-background:new 0 0 100 100;" xml:space="preserve">
<style type="text/css">
	.st0{fill:#AA8C61;}
</style>
<g>
	<path class="st0" d="M37.1,40.3c-3.8-0.4-7.1-1.8-10.1-3.8c-3.3,2.6-5.8,5.8-7.5,9.7c-0.1,0.2-0.1,0.5,0,0.6c1,1.8,2.1,3.6,3.1,5.4
		c0.6,1,1.3,1.7,2.5,2c0.7,0.2,1.5,0.5,2.2,0.8c1.7,0.8,2.5,2.4,1.9,4.2c-0.4,1.4-1.1,2.8-1.7,4.1c-0.2,0.4-0.4,0.9-0.6,1.3
		c-0.9,1.6-1,3.1,0,4.8c1.3,2.2,1.6,4.6,1.3,7.2c-0.1,0.5,0,0.9,0.5,1.1c1.5,0.8,2.9,1.6,4.4,2.4c0.9,0.5,1.2,1,0.9,1.8
		c-0.3,0.7-0.9,0.9-1.8,0.5c-9.6-4.4-15.5-11.7-16.8-22.2c-1.3-9.8,2-18,9.3-24.6c0.1-0.1,0.2-0.2,0.3-0.2c0,0,0.1-0.1,0.1-0.2
		c-0.1-0.1-0.2-0.3-0.3-0.4c-4.6-3.9-8-8.7-10.7-14.1c-0.3-0.7-0.3-1.3,0.3-1.8c5.7-4.9,12-8.7,19.5-10.1c6.9-1.2,12.8,1,18,5.4
		c0.6,0.5,0.6,1.2,0.1,1.7c-0.5,0.5-1.1,0.6-1.8,0c-2-1.6-4.1-3.1-6.6-4c-1.8-0.7-3.7-1.1-5.7-1.1c0.2,0.3,0.3,0.5,0.5,0.7
		c3.2,4.3,6.3,8.7,9.5,13c0.2,0.2,0.4,0.5,0.7,0.6c3.5,0.7,7.1,1.4,10.6,2.1c0.1-0.1,0.1-0.1,0.2-0.2c-1.3-1.9-2.6-3.8-3.9-5.7
		c-0.1-0.1-0.2-0.3-0.3-0.4c-0.6-0.8-0.6-1.5,0-1.9c0.6-0.5,1.2-0.3,1.8,0.4c0.6,0.8,1.3,1.6,1.8,2.4c1.2,1.9,2.1,3.9,3.5,5.6
		c1.4,1.7,3.3,2.9,5,4.3c0.5,0.4,1,0.9,1.5,1.4c-0.1-0.9-0.3-1.8-0.4-2.7c-0.6-5.6,1.2-10.2,5.5-13.7C77,14,81,12.2,85.2,11.1
		c0.8-0.2,1.3,0,1.7,0.7c2.2,4,3.7,8.1,4,12.7c0.3,5.2-1.6,9.5-5.6,12.8c-2.9,2.4-6.1,4-9.6,5.2c-0.3,0.1-0.6,0.2-1,0.3
		c0.1,0.3,0.2,0.6,0.3,0.9c8,19.7-3.9,42.2-24.7,46.7c-18.6,4-36.5-7.4-41-25.9C8.2,60,8,55.6,8.8,51.2c0.2-0.9,0.6-1.3,1.4-1.2
		c0.8,0.1,1.1,0.7,1,1.6C8.8,67.2,17.7,81.8,32.5,87c18.3,6.3,38.4-5.3,41.9-24.3c2.3-12.9-2-23.5-12.1-31.7
		c-0.2-0.2-0.5-0.3-0.7-0.5c-1.1,0.9-2.2,1.8-3.4,2.7c0.2,0.2,0.4,0.3,0.6,0.5c8.7,6.4,12.7,15,11.9,25.7c-1,12.9-11.5,23.5-24.3,25
		c-2,0.2-4.1,0.2-6.2,0.1c-0.4,0-1.1-0.4-1.3-0.8c-0.5-0.8,0.2-1.7,1.3-1.6c1.3,0,2.7,0.1,4,0.1c11.6-0.4,21.9-9.4,23.8-20.9
		c0.6-3.5,0.5-7.6-0.2-10.1c-2.1,1.2-4.2,2.3-5.6,4.3c-1.1,1.6-0.8,3.5-0.7,5.3c0.1,1.5,0.5,3,0.2,4.4c-1,4.2-3.7,7-7.7,8.4
		c-2.4,0.8-4.5-0.3-5.2-2.8c-0.4-1.4-0.6-2.9-0.6-4.4c-0.1-2.9-0.1-5.8-0.2-8.8c-0.1-2.5-0.4-2.6-2.8-2.3c-1.9,0.2-3.9,0.6-5.8,0.5
		c-4.4-0.2-7.3-3.9-6.7-8.3c0.4-2.6,1.8-4.6,3.7-6.3C36.5,40.9,36.7,40.7,37.1,40.3z M67.2,48.5c-1.9-5.7-5.4-10.1-10.4-13.4
		c-0.6-0.4-1-0.4-1.7,0c-3.9,2.5-8.1,4.3-12.8,5.1c-0.4,0.1-0.8,0.1-1.1,0.3c-0.8,0.5-1.7,1.1-2.5,1.7c-1.6,1.2-2.9,2.6-3.5,4.5
		c-1.1,3.5,1.2,6.7,4.8,6.7c0.7,0,1.5-0.1,2.2-0.2c1.4-0.2,2.9-0.4,4.3-0.6c1.4-0.2,2.5,0.5,3,1.8c0.4,0.9,0.7,1.9,0.7,2.8
		c0.1,2.9,0.1,5.8,0.2,8.7c0.1,1.4,0.2,2.7,0.5,4.1c0.3,1.2,1,1.5,2.1,1.3c3.4-0.7,6.5-5.1,6.1-8.5c-0.1-0.6-0.2-1.2-0.3-1.8
		c-0.7-4.3,0.6-7.7,4.4-10C64.7,50.1,65.9,49.3,67.2,48.5z M58.6,29.8c-0.3-0.1-0.5-0.2-0.6-0.2c-3.3-0.6-6.6-1.3-9.9-1.9
		c-0.4-0.1-0.8,0.1-1.2,0.3c-4,2.9-8.1,5.9-12.1,8.8c-0.2,0.1-0.4,0.3-0.7,0.6c1.3,0.2,2.5,0.4,3.6,0.5
		C45.8,38.2,52.3,34.3,58.6,29.8z M25.7,75.4c0.1-1.6-0.3-3.8-1.3-5.4c-1.2-1.8-1-3.4-0.2-5.2c0.7-1.5,1.5-3,2.1-4.6
		c1.1-2.5,0.9-2.9-1.6-3.6c-2-0.6-3.4-1.7-4.4-3.6c-0.6-1.2-1.2-2.3-1.9-3.5C15.8,57.5,18,68.7,25.7,75.4z M44.2,27
		c-0.2-0.1-0.2-0.2-0.3-0.2c-2.2-0.4-4.5-0.7-6.6-1.3c-2.2-0.7-3.9-0.2-5.6,1.3c-2.1,1.8-4.5,3.3-6.8,5c1.9,1.8,3.9,3.2,6.1,4.3
		c0.2,0.1,0.7,0,0.9-0.2c1.3-0.9,2.6-1.9,4-2.9C38.7,31.1,41.4,29.1,44.2,27z M44.4,24.4c0-0.2,0-0.2,0-0.3
		c-3.1-4.3-6.2-8.5-9.3-12.7c-0.1-0.2-0.4-0.3-0.6-0.3c-2.2,0.3-4.3,0.9-6.3,1.8c0.2,0.3,0.3,0.5,0.5,0.7c1.6,2.1,3.3,4.2,4.7,6.5
		c1.2,1.9,2.6,3.1,4.9,3.1c0.3,0,0.7,0.1,1,0.2C40.8,23.8,42.6,24.1,44.4,24.4z M75.5,39.7c0.1,0.1,0.1,0.1,0.2,0.2
		c1.1-0.5,2.2-0.9,3.3-1.4c2.8-1.4,5.4-3.2,7.3-5.7c1.1-1.5,1.8-3.3,2.1-5.3c-2.6,1.1-5.1,2.2-7.7,3.1c-1.1,0.4-1.8,1.1-2.2,2.2
		C77.5,35.1,76.5,37.4,75.5,39.7z M73.1,39c0.1-0.1,0.1-0.1,0.2-0.2c1.1-2.6,2.2-5.1,3.2-7.7c0.1-0.3,0-0.7-0.1-1
		c-1.1-2.7-2.2-5.4-3.4-8.2c-0.1-0.2-0.2-0.4-0.3-0.6C69.2,25.6,70.1,33,73.1,39z M17.1,21.6c1.8,3.2,3.8,5.9,6.1,8.5
		c2.6-1.9,5.1-3.8,7.9-5.8C26.3,23.4,21.8,22.5,17.1,21.6z M77.9,27.6c1.9-4.6,3.7-8.9,5.7-13.5c-3.3,1.2-6.3,2.7-8.8,4.9
		c-0.1,0.1-0.2,0.5-0.1,0.6C75.7,22.2,76.8,24.8,77.9,27.6z M17.6,18.9c0,0.1,0.1,0.2,0.1,0.3c4.6,0.9,9.1,1.8,13.9,2.7
		c-2-2.8-3.9-5.4-6-8.1C22.9,15.5,20.2,17.2,17.6,18.9z M80.5,27.8c0.1,0,0.2,0.1,0.2,0.1c2.4-1,4.9-2,7.3-3
		c0.2-0.1,0.4-0.5,0.4-0.8c-0.2-1.3-0.3-2.6-0.6-3.8c-0.5-1.7-1.1-3.4-1.7-5.1c-0.1,0-0.2,0-0.2,0.1C84,19.4,82.2,23.6,80.5,27.8z"
		/>
</g>
</svg>
