<?xml version="1.0" encoding="utf-8"?>
<!-- Generator: Adobe Illustrator 26.3.1, SVG Export Plug-In . SVG Version: 6.00 Build 0)  -->
<svg version="1.1" id="Layer_1" xmlns="http://www.w3.org/2000/svg" xmlns:xlink="http://www.w3.org/1999/xlink" x="0px" y="0px"
	 viewBox="0 0 100 100" style="enable-background:new 0 0 100 100;" xml:space="preserve">
<style type="text/css">
	.st0{fill:#AA8C61;}
</style>
<path class="st0" d="M94.4,64.9c-0.4,1.9-1.8,3.2-3.2,4.4c-5,4.5-10.1,9-15.1,13.6c-2.9,2.7-6.2,4.1-10,4.6C58.1,88.6,50,89.8,42,91
	c-2.6,0.4-5,0.2-7.4-0.7C29,88,23.4,86,17.7,83.8c-0.1,0.3-0.1,0.6-0.2,0.9c-0.4,2.2-2,3.8-4.2,3.9c-1.6,0.1-3.3,0.1-4.9,0
	c-2.3-0.1-4-1.9-4.2-4.1c-0.1-0.9-0.1-1.8,0-2.7c0-0.7,0.4-1.2,1.2-1.3c0.7-0.1,1.3,0.4,1.3,1.2c0.1,0.7,0,1.4,0,2.1
	c0.1,1.5,0.9,2.3,2.3,2.3c1.2,0,2.5,0,3.7,0c1.5,0,2.3-0.9,2.3-2.3c0-10.1,0-20.1,0-30.2c0-1.4-0.8-2.2-2.3-2.3c-1.1,0-2.3,0-3.4,0
	c-1.9,0-2.6,0.8-2.6,2.6c0,3.5,0,6.9,0,10.4c0,2.9,0,5.7,0,8.6c0,0.3,0,0.7-0.1,1c-0.1,0.6-0.6,0.9-1.2,0.9c-0.7,0-1.1-0.4-1.2-1
	c-0.1-0.3,0-0.5,0-0.8c0-6.4,0-12.8,0-19.1c0-3.3,1.9-5.2,5.2-5.2c1,0,2.1,0,3.1,0c3.2,0,5.1,1.8,5.2,4.9c0,0.1,0,0.3,0,0.5
	c2,0.1,3.9,0.2,6,0.3c0-3.6,0-7.3,0-11.2c-0.8,0.8-1.6,1.5-2.4,2.2c-0.6,0.5-1.1,1.1-1.8,1.6c-2,1.6-4.6,1.4-6.3-0.4
	c-1.6-1.8-1.7-4.5,0.1-6.2c2.6-2.6,5.3-5,7.9-7.5c0.9-0.8,2.1-1.6,2.6-2.6c0.5-1,0.1-2.4,0.1-3.7c0-2.7,0-5.5,0-8.2
	c0-1.9,0.8-2.7,2.7-2.7c2,0,4,0,6,0c2.1,0,2.8,0.7,2.9,2.8c0,0.2,0,0.5,0,0.8c0.3-0.3,0.5-0.4,0.7-0.6c3-2.9,6.1-5.7,9.1-8.6
	c2.4-2.2,4.8-2.2,7.2,0c6,5.6,12,11.2,18,16.8c0.1,0.1,0.2,0.2,0.3,0.2c0.7,0.7,0.8,1.5,0.3,2.1c-0.5,0.5-1.3,0.5-2-0.2
	c-4.5-4.2-9-8.4-13.5-12.7c-1.6-1.5-3.2-3-4.8-4.5c-1.3-1.2-2.2-1.2-3.5,0C36.6,22,26.1,31.9,15.6,41.8c-0.5,0.5-0.9,1.2-0.9,1.9
	c-0.1,1.4,1.6,2.3,2.8,1.6c0.4-0.2,0.8-0.6,1.1-0.9c9.6-9,19.2-18.1,28.8-27.2c1.3-1.2,1.7-1.2,2.9,0c9.7,9.1,19.4,18.2,29.1,27.2
	c0.5,0.5,1.2,0.8,1.9,0.9c0.7,0.1,1.3-0.4,1.7-1.1c0.3-0.7,0.3-1.4-0.2-2c-0.2-0.3-0.5-0.6-0.8-0.8c-2.2-2.1-4.4-4.1-6.6-6.2
	c-0.2-0.2-0.5-0.4-0.7-0.7c-0.4-0.5-0.3-1.1,0.1-1.5c0.4-0.5,1-0.6,1.5-0.3c0.2,0.1,0.3,0.2,0.5,0.4c2.4,2.3,4.9,4.5,7.3,6.9
	c2.4,2.3,1.8,6.1-1.1,7.5c-1.7,0.8-3.7,0.5-5.2-0.9c-1-0.9-2.1-1.9-3.1-2.9c-0.2-0.2-0.4-0.4-0.7-0.7c0,8,0,15.8,0,23.9
	c0.4-0.2,0.6-0.4,0.9-0.6c3.4-2.3,6.9-4.6,10.3-6.9c3.1-2.1,6.9-1.1,8.4,2c0.2,0.5,0.4,1,0.6,1.6C94.4,63.8,94.4,64.4,94.4,64.9z
	 M17.6,56.8c0,0.2,0,0.4,0,0.6c0,7.6,0,15.3,0,22.9c0,0.6,0.3,0.8,0.8,1c6.1,2.3,12.2,4.6,18.3,6.9c1.1,0.4,2.3,0.5,3.4,0.4
	c8.9-1.2,17.7-2.5,26.6-3.8c2.7-0.4,5.1-1.4,7.1-3.3c4.5-4.1,9-8.1,13.6-12.2c1.2-1,2.3-2.1,3.5-3.1c1-0.9,1.2-2.3,0.6-3.5
	c-0.5-1.1-1.7-1.8-3-1.6c-0.6,0.1-1.3,0.4-1.8,0.8c-5.7,3.8-11.5,7.7-17.2,11.5c-0.4,0.3-0.9,0.5-1.4,0.5c-1.9-0.1-3.9-0.2-5.8-0.3
	C55.8,73,49.4,72.4,43,71.8c-2.8-0.2-5.7-0.5-8.5-0.7c-1-0.1-1.5-0.7-1.4-1.4c0.1-0.8,0.7-1.2,1.7-1.1c0.8,0.1,1.5,0.1,2.3,0.2
	c7,0.6,14,1.2,21.1,1.9c1.1,0.1,2.2,0.2,3.3,0.2c0-2.8-2-5.2-4.7-5.5c-3.6-0.4-7.2-0.9-10.8-1.2c-5.1-0.5-9.9-1.7-14.4-4.3
	C27.3,57.3,22.6,56.6,17.6,56.8z M48.9,19.5c-0.2,0.1-0.3,0.2-0.4,0.3C41.3,26.6,34,33.5,26.7,40.4c-0.3,0.2-0.4,0.7-0.4,1.1
	c0,4.3,0,8.5,0,12.8c0,0.3,0,0.5,0,0.8c3,0.7,5.7,2.1,8.4,3.5c1.8,1,3.7,1.7,5.8,2.1c0-0.4,0-0.7,0-1c0-4.3,0-8.7,0-13
	c0-1.9,0.9-2.8,2.8-2.8c3.8,0,7.6,0,11.4,0c0.5,0,1.1,0.1,1.5,0.3c1,0.5,1.3,1.4,1.3,2.4c0,5.2,0,10.3,0,15.5c0,0.5,0,0.8,0.6,1
	c3.7,1.1,5.6,3.7,6,7.4c0.1,0.5,0.2,0.7,0.7,0.7c3.1,0.3,3.1,0.3,5.7-1.5c0.2-0.1,0.4-0.3,0.6-0.4c0.6-0.3,0.7-0.7,0.7-1.3
	c0-8.8,0-17.6,0-26.4c0-0.6-0.2-1-0.6-1.4c-3.5-3.3-7-6.6-10.6-9.9C56.6,26.6,52.8,23.1,48.9,19.5z M54.8,62.5c0-5.4,0-10.8,0-16.1
	c-3.9,0-7.8,0-11.7,0c0,4.9,0,9.8,0,14.8C47,61.6,50.9,62,54.8,62.5z M26.5,27.9c2.1-2,4.1-3.9,6.1-5.7c0.1-0.1,0.2-0.3,0.2-0.5
	c0-1.1,0-2.2,0-3.3c-2.2,0-4.2,0-6.3,0C26.5,21.6,26.5,24.6,26.5,27.9z"/>
</svg>
