<?xml version="1.0" encoding="utf-8"?>
<!-- Generator: Adobe Illustrator 26.3.1, SVG Export Plug-In . SVG Version: 6.00 Build 0)  -->
<svg version="1.1" id="Layer_1" xmlns="http://www.w3.org/2000/svg" xmlns:xlink="http://www.w3.org/1999/xlink" x="0px" y="0px"
	 viewBox="0 0 100 100" style="enable-background:new 0 0 100 100;" xml:space="preserve">
<style type="text/css">
	.st0{fill:#AA8C61;}
</style>
<g>
	<path class="st0" d="M7.1,23.6c0-0.1,0.1-0.2,0.1-0.3C8,20.5,10,18.9,13,18.9c15.7,0,31.4,0,47.1,0c0.8,0,1.3-0.2,1.6-1
		c0.4-0.9,0.9-1.8,1.3-2.6c0.8-1.6,2-2.6,3.9-2.6c1.8,0,3,1,3.8,2.6c0.5,1,1,2,1.5,3c0.2,0.5,0.5,0.6,1,0.6c4.6,0,9.3,0,14,0
		c3.8,0,6.1,2.3,6.1,6.1c0,14.5,0,29,0,43.5c0,0.3,0,0.5,0,0.8c-0.1,0.7-0.6,1.1-1.3,1.1c-0.7,0-1.1-0.4-1.2-1.1c0-0.3,0-0.6,0-0.8
		c0-10.8,0-21.6,0-32.4c0-0.3,0-0.7,0-1.1c-4.5,0-9,0-13.6,0c0,0.5,0,0.9,0,1.4c-0.3,2.9-3.2,4.6-5.8,3.3c-1.2-0.5-2.3-1.2-3.4-1.8
		c-0.7-0.4-1.4-0.4-2.1,0c-1,0.6-2,1.1-3,1.6c-1.5,0.8-3,0.9-4.4-0.1c-1.4-1-2-2.4-1.7-4.1c0-0.1,0-0.2,0-0.3c-15.6,0-31.2,0-46.9,0
		c0,0.3,0,0.6,0,0.9c0,15,0,30.1,0,45.1c0,2.3,1.2,3.5,3.5,3.5c24.7,0,49.3,0,74,0c2.3,0,3.5-1.2,3.5-3.5c0-1.8,0-3.6,0-5.4
		c0-1,0.5-1.6,1.2-1.6c0.8,0,1.3,0.5,1.3,1.5c0,1.8,0,3.6,0,5.4c0,3.7-2.4,6.1-6,6.1c-8.1,0-16.2,0-24.4,0c-16.2,0-32.5,0-48.7,0
		c-3.1,0-5.8-0.9-6.9-4.7C7.1,62.7,7.1,43.2,7.1,23.6z M9.6,32.3c15.8,0,31.6,0,47.3,0c0.6-1.3,0.2-2.2-0.8-3
		c-0.8-0.7-1.6-1.5-2.4-2.3c-0.9-0.9-1.3-1.9-1.2-3.1c0.1-0.8,0.4-1.6,0.7-2.5c-0.2,0-0.4,0-0.7,0c-13.2,0-26.3,0-39.5,0
		c-0.2,0-0.4,0-0.6,0c-1.6,0.1-2.9,1.3-2.9,2.9C9.5,27,9.6,29.6,9.6,32.3z M58.9,35.8c-0.1,1.3,1.1,2.1,2.2,1.6
		c1.1-0.5,2.2-1.1,3.3-1.7c1.5-0.8,2.9-0.8,4.4,0c1.1,0.6,2.1,1.1,3.2,1.7c0.6,0.3,1.2,0.4,1.7,0c0.6-0.4,0.8-1,0.7-1.7
		c-0.2-1.2-0.4-2.4-0.6-3.6c-0.3-1.6,0.1-3,1.3-4.1c0.9-0.8,1.7-1.7,2.6-2.5c0.5-0.5,0.8-1.1,0.5-1.8c-0.2-0.6-0.7-1-1.4-1
		c-1.3-0.2-2.5-0.4-3.8-0.6c-1.5-0.2-2.6-1-3.2-2.4c-0.5-1-1-2-1.5-3c-0.3-0.7-0.7-1.3-1.6-1.4c-0.9,0-1.3,0.6-1.7,1.3
		c-0.5,1.1-1,2.1-1.6,3.2c-0.7,1.3-1.7,2.1-3.1,2.3c-1.3,0.2-2.5,0.4-3.8,0.6c-0.7,0.1-1.2,0.4-1.4,1.1c-0.2,0.7,0,1.3,0.6,1.8
		c0.9,0.8,1.8,1.7,2.7,2.6c1.1,1.1,1.5,2.4,1.2,4C59.3,33.3,59.1,34.6,58.9,35.8z M80,21.4c0.1,0.2,0.2,0.3,0.2,0.4
		c1.1,1.9,0.9,3.8-0.7,5.3c-0.8,0.8-1.5,1.5-2.3,2.2c-1,0.8-1.2,1.8-0.7,2.9c4.6,0,9.3,0,14,0c0-2.8,0.1-5.5,0-8.2
		c-0.1-1.5-1.4-2.7-2.9-2.7C85.1,21.4,82.6,21.4,80,21.4z"/>
	<path class="st0" d="M27.9,68.6c-0.3-1.4-1-2.7-2-3.7c-1.1-1-2.2-2-3.4-2.8c-4.9-3.2-7.1-8-7.6-13.6c-0.1-1.1-0.2-2.2-0.2-3.4
		c0-1.7,1.2-2.9,2.8-2.9c1.3,0,2.6,0,3.9,0c0.9,0,1.5,0.5,1.5,1.3c0,0.8-0.5,1.2-1.5,1.3c-1.1,0-2.3,0-3.4,0c-0.6,0-0.8,0.2-0.7,0.7
		c0.3,2.1,0.4,4.2,0.8,6.3c0.7,3.3,2.7,5.9,5.4,7.9c0.9,0.6,1.7,1.3,2.5,1.9c2.4,1.7,4,3.9,4.5,7c2.1,0,4.1,0,6.2,0
		c0.5-3.6,2.7-6,5.6-7.8c5.9-3.7,7.8-9.2,7.6-15.7c0-0.1,0-0.1-0.1-0.3c-0.3,0-0.6,0-0.9,0c-6.9,0-13.7,0-20.6,0c-0.3,0-0.6,0-0.8,0
		c-0.6-0.1-1-0.5-1.1-1.1c-0.1-0.7,0.3-1.1,0.9-1.3c0.3-0.1,0.6-0.1,0.8-0.1c7.1,0,14.1,0,21.2,0c2.1,0,3.2,1.2,3.2,3.2
		c-0.1,3.6-0.6,7.1-2.2,10.4c-1.4,2.7-3.4,4.8-5.9,6.5c-1.3,0.9-2.4,1.9-3.5,3c-0.9,0.8-1.4,1.9-1.5,3.1c0.9,0.2,1.7,0.2,2.5,0.5
		c2.5,0.8,4,3.1,3.9,5.6c-0.1,1.6-1.1,2.6-2.7,2.6c-6.2,0-12.4,0-18.7,0c-1.6,0-2.7-1.2-2.7-2.8c0.1-3.3,2.4-5.7,5.7-5.8
		C27.5,68.6,27.7,68.6,27.9,68.6z M43.1,74.7c0.1-2-1.1-3.4-2.8-3.5c-4.4-0.1-8.8-0.1-13.3,0c-1.8,0-3.2,1.8-2.7,3.5
		C30.5,74.7,36.8,74.7,43.1,74.7z"/>
	<path class="st0" d="M70.1,57.1c2.8,0,5.6,0,8.4,0c0.4,0,0.9,0,1.1,0.2c0.3,0.3,0.6,0.8,0.5,1.2c-0.1,0.4-0.5,0.7-0.8,1
		c-0.2,0.1-0.5,0.1-0.8,0.1c-5.6,0-11.2,0-16.8,0c-0.2,0-0.4,0-0.6,0c-0.7-0.1-1.2-0.6-1.2-1.3c0-0.7,0.5-1.2,1.2-1.2
		c0.9,0,1.7,0,2.6,0C65.8,57.1,68,57.1,70.1,57.1z"/>
	<path class="st0" d="M70.1,63.5c2.8,0,5.5,0,8.3,0c0.4,0,0.9,0,1.1,0.2c0.3,0.3,0.6,0.8,0.6,1.2c0,0.4-0.5,0.7-0.8,1
		c-0.2,0.2-0.6,0.1-0.9,0.1c-5.6,0-11.1,0-16.7,0c-0.2,0-0.3,0-0.5,0c-0.8-0.1-1.3-0.6-1.3-1.3c0-0.7,0.5-1.2,1.3-1.2
		c1.8,0,3.5,0,5.3,0C67.7,63.5,68.9,63.5,70.1,63.5z"/>
	<path class="st0" d="M70.1,69.9c2.7,0,5.5,0,8.2,0c0.3,0,0.6,0,0.9,0.1c0.6,0.1,0.9,0.6,0.9,1.2c0,0.6-0.3,1.1-1,1.2
		c-0.3,0.1-0.6,0.1-0.8,0.1c-5.5,0-11.1,0-16.6,0c-0.2,0-0.4,0-0.6,0c-0.8-0.1-1.3-0.6-1.3-1.3c0-0.7,0.5-1.2,1.3-1.2
		c0.7,0,1.5,0,2.2,0C65.6,69.9,67.9,69.9,70.1,69.9z"/>
	<path class="st0" d="M65.3,50.7c1.3,0,2.6,0,3.9,0c0.9,0,1.5,0.5,1.5,1.2c0,0.8-0.5,1.3-1.5,1.3c-2.6,0-5.3,0-7.9,0
		c-0.9,0-1.5-0.5-1.5-1.3c0-0.7,0.6-1.2,1.5-1.2C62.7,50.7,64,50.7,65.3,50.7z"/>
	<path class="st0" d="M19.6,22.9c2.2,0,3.9,1.8,3.9,3.9c0,2.3-1.7,4-4,4c-2.3,0-3.9-1.7-3.9-4C15.6,24.6,17.4,22.9,19.6,22.9z
		 M19.6,28.2c0.7,0,1.4-0.7,1.4-1.4c0-0.8-0.6-1.4-1.5-1.4c-0.8,0-1.4,0.6-1.4,1.5C18.2,27.7,18.8,28.3,19.6,28.2z"/>
	<path class="st0" d="M29.4,22.9c2.2,0,3.9,1.7,3.9,3.9c0,2.3-1.7,3.9-3.9,3.9c-2.3,0-4-1.7-4-4C25.5,24.6,27.3,22.9,29.4,22.9z
		 M29.4,25.4c-0.8,0-1.4,0.6-1.4,1.4c0,0.8,0.7,1.5,1.5,1.4c0.8,0,1.4-0.7,1.4-1.4C30.8,26,30.2,25.4,29.4,25.4z"/>
	<path class="st0" d="M39.2,22.9c2.2,0,4,1.7,4,3.9c0,2.2-1.7,3.9-3.9,4c-2.3,0-4-1.7-4-4C35.3,24.6,37.1,22.9,39.2,22.9z
		 M40.7,26.8c0-0.8-0.6-1.4-1.4-1.4c-0.8,0-1.4,0.6-1.4,1.4c0,0.7,0.7,1.4,1.4,1.4C40,28.3,40.7,27.6,40.7,26.8z"/>
</g>
</svg>
