<?xml version="1.0" encoding="utf-8"?>
<!-- Generator: Adobe Illustrator 26.3.1, SVG Export Plug-In . SVG Version: 6.00 Build 0)  -->
<svg version="1.1" id="Layer_1" xmlns="http://www.w3.org/2000/svg" xmlns:xlink="http://www.w3.org/1999/xlink" x="0px" y="0px"
	 viewBox="0 0 100 100" style="enable-background:new 0 0 100 100;" xml:space="preserve">
<style type="text/css">
	.st0{fill:#AA8C61;}
</style>
<path class="st0" d="M42.3,90.1c-0.4-0.5-0.9-0.9-1.2-1.5c-1.1-1.9-2.2-3.9-3.2-5.8c-0.3-0.5-0.5-0.6-1-0.4
	c-2.2,0.7-4.5,1.3-6.8,1.9c-0.7,0.2-1.4,0.2-1.9-0.4c-0.5-0.6-0.5-1.3-0.2-2c2.8-6.6,5.6-13.3,8.3-19.9c0.1-0.3,0.2-0.5,0.4-0.9
	c-1.1-0.1-2.1-0.2-3.1-0.3c-3.7-0.2-6.2-2.6-6.6-6.3c-0.2-1.9-0.4-3.8-0.6-5.7c-0.1-1-0.5-1.9-1.1-2.6c-1.2-1.5-2.4-2.9-3.6-4.4
	c-2.2-2.7-2.2-6,0-8.7c1.1-1.3,2.1-2.7,3.3-3.9c1-1.1,1.5-2.4,1.6-3.9c0.1-1.8,0.3-3.5,0.5-5.2c0.3-3.1,2.8-5.6,5.9-5.9
	c2-0.2,4-0.4,6-0.6c1.1-0.1,2-0.5,2.8-1.2c1.3-1.1,2.7-2.2,4.1-3.4c2.9-2.4,6.2-2.4,9.1-0.1c1.3,1,2.6,2.1,3.8,3.2
	c1.1,1,2.4,1.5,3.8,1.6c1.7,0.1,3.4,0.3,5.1,0.5c3.4,0.3,5.8,2.8,6.1,6.3c0.2,1.9,0.3,3.7,0.5,5.6c0.1,1,0.5,1.9,1.1,2.7
	c1.2,1.4,2.4,2.9,3.6,4.4c2.2,2.8,2.2,6.1,0,8.8c-0.9,1-1.6,2.2-2.6,3.1c-1.6,1.6-2.3,3.5-2.3,5.8c0,1.3-0.2,2.6-0.4,4
	c-0.4,3.5-2.9,5.8-6.4,6.1c-1.1,0.1-2.1,0.2-3.3,0.3c0.1,0.4,0.2,0.7,0.4,1c2.7,6.5,5.5,13,8.2,19.6c0.1,0.1,0.1,0.3,0.2,0.4
	c0.3,0.6,0.3,1.3-0.2,1.8c-0.5,0.6-1.1,0.7-1.8,0.5c-2.3-0.6-4.6-1.3-6.8-1.9c-0.6-0.2-0.8,0-1.1,0.5c-1,2-2.1,3.9-3.2,5.9
	c-0.3,0.5-0.8,0.9-1.2,1.4c-0.3,0-0.6,0-1,0c-0.4-0.5-0.9-1-1.2-1.5c-0.7-1.5-1.3-3.1-2-4.6c-0.8-1.9-1.6-3.8-2.4-5.7
	c-0.4-1,0-1.8,0.9-1.9c0.8-0.1,1.1,0.4,1.4,1c1.1,2.6,2.2,5.2,3.3,7.8c0.2,0.4,0.3,0.8,0.6,1.3c1-1.7,1.8-3.3,2.7-4.9
	c0.9-1.7,1.8-2.1,3.7-1.5c1.8,0.5,3.6,1,5.5,1.5c-0.2-0.4-0.3-0.7-0.4-1c-2.5-5.9-5-11.8-7.4-17.8c-0.7-1.7-1.1-1.8-2.6-0.6
	c-0.3,0.2-0.5,0.4-0.8,0.7c-1.4,1.2-2.9,2.3-4.3,3.5c-0.4,0.4-0.8,0.8-1.1,1.3c-3,7-5.9,14-8.8,20.9c-0.2,0.6-0.8,1-1.3,1.5
	C43,90.1,42.6,90.1,42.3,90.1z M78.2,37.5c0-1.2-0.3-2-1.1-2.9c-1.2-1.5-2.4-3-3.7-4.4c-1-1.2-1.5-2.6-1.6-4.1c-0.2-2-0.3-4-0.6-6
	c-0.3-2-1.8-3.3-3.8-3.5c-1.8-0.2-3.5-0.4-5.3-0.5c-1.8-0.1-3.4-0.8-4.8-2c-1.3-1.1-2.6-2.2-3.9-3.3c-1.9-1.6-3.9-1.6-5.8,0
	c-1.5,1.2-2.9,2.4-4.4,3.6c-1.1,0.9-2.3,1.5-3.7,1.6c-2,0.2-4,0.4-6,0.6c-2.1,0.2-3.6,1.8-3.8,3.8c-0.2,1.8-0.4,3.5-0.5,5.3
	c-0.1,1.8-0.8,3.4-2,4.8c-1.2,1.3-2.2,2.7-3.4,4.1c-1.5,1.8-1.5,3.9,0,5.7c1.2,1.5,2.4,3,3.7,4.4c0.9,1.1,1.4,2.3,1.6,3.7
	c0.2,2,0.4,4,0.6,6c0.2,2,1.5,3.5,3.5,3.8c1.5,0.2,3,0.4,4.5,0.5c2.6,0.1,4.8,0.8,6.7,2.7c1,1,2.2,1.8,3.3,2.7
	c1.9,1.5,3.9,1.5,5.8,0c1.4-1.2,2.9-2.4,4.3-3.6c1.2-1,2.7-1.6,4.3-1.7c2-0.2,4-0.3,6-0.6c1.8-0.3,3.1-1.6,3.4-3.4
	c0.2-1.5,0.4-2.9,0.4-4.4c0.1-2.6,0.8-4.9,2.7-6.8c1-1.1,1.9-2.3,2.8-3.4C77.9,39.3,78.2,38.4,78.2,37.5z M50.7,67.7
	c-2.5,0.1-4.2-1.1-5.8-2.5c-1.1-0.9-2.2-1.8-3.3-2.7c-0.4-0.3-1-0.6-1.4-0.9c-0.6-0.3-0.9-0.1-1.1,0.5c-2.6,6.2-5.2,12.5-7.8,18.7
	c-0.1,0.2-0.2,0.4-0.3,0.8c1.9-0.5,3.7-1,5.5-1.5c1.8-0.5,2.7-0.1,3.6,1.5c0.9,1.6,1.8,3.3,2.8,5C45.4,80.2,48,74,50.7,67.7z"/>
<path class="st0" d="M69.6,37.4c0,11.4-9.9,20.3-21.1,19.2c-10-1-17.6-9.6-17.3-19.6c0.3-7.7,4.1-13.4,11-16.9
	c0.3-0.2,0.8-0.4,1.1-0.2c0.4,0.2,0.8,0.6,1,1c0.2,0.6-0.2,1-0.7,1.3c-1.2,0.7-2.5,1.4-3.6,2.3c-5.2,4.1-7.4,11.1-5.6,17.5
	C36,48.3,41.6,53.2,48.2,54c10.7,1.4,19.8-7.3,18.9-18c-0.7-9.1-8.9-16.1-18-15.3c-0.3,0-0.6,0.1-0.9,0.1c-0.8,0-1.3-0.4-1.3-1.1
	c-0.1-0.7,0.4-1.2,1.2-1.3c2.6-0.3,5.2-0.1,7.7,0.6C64,21.4,69.6,28.8,69.6,37.4z"/>
<path class="st0" d="M46.3,38.8c0.2-0.3,0.4-0.6,0.6-0.8c2.7-2.7,5.5-5.5,8.2-8.2c1.7-1.6,4-1.7,5.5-0.2c1.6,1.5,1.5,3.9-0.2,5.6
	c-3.8,3.8-7.6,7.6-11.3,11.3c-1.7,1.7-3.9,1.7-5.7,0c-1.7-1.7-3.4-3.4-5.1-5.1c-1.6-1.6-1.6-3.9-0.1-5.4c1.5-1.5,3.8-1.5,5.4,0.1
	C44.5,36.9,45.3,37.8,46.3,38.8z M59.4,32.2c-0.3-0.4-0.5-0.8-0.9-1c-0.7-0.4-1.2-0.1-1.7,0.4c-3.1,3.1-6.2,6.2-9.3,9.3
	c-1,1-1.5,1-2.5,0c-1-1-2-2-3-3c-0.7-0.7-1.4-0.7-2-0.2c-0.6,0.5-0.5,1.3,0.1,2c1.7,1.7,3.4,3.4,5.1,5.1c0.7,0.7,1.4,0.7,2.1,0
	c3.8-3.8,7.7-7.7,11.5-11.5C59,33,59.1,32.7,59.4,32.2z"/>
</svg>
